<?xml version="1.0" encoding="UTF-8"?>
<svg id="Layer_1" data-name="Layer 1" xmlns="http://www.w3.org/2000/svg" viewBox="0 0 72 72">
  <defs>
    <style>
      .cls-1, .cls-2 {
        stroke: #000;
        stroke-miterlimit: 10;
        stroke-width: 1.13px;
      }

      .cls-2 {
        fill: none;
      }
    </style>
  </defs>
  <path class="cls-1" d="M24.38,53.26l-1.29,1.3c-1.49,1.48-3.88,1.47-5.35,0-.66-.65-1.02-1.49-1.1-2.34-.09-1.08.27-2.18,1.09-3.01l1.3-1.3,5.35,5.35Z"/>
  <path class="cls-2" d="M53.69,31.33l-10.55,10.55c-1.7-1.2-3.73-1.71-5.72-1.54s-3.85,1-5.34,2.49c-1.87,1.87-2.7,4.39-2.48,6.84.13,1.47.64,2.94,1.54,4.2l-.83.84c-1.24,1.23-3.24,1.23-4.48,0l-1.45-1.45-5.35-5.35-1.45-1.46c-1.23-1.23-1.24-3.23,0-4.47l23.38-23.38c.16.38.4.73.71,1.03l10.98,10.97c.31.3.66.55,1.04.72Z"/>
  <path class="cls-1" d="M57.74,30.61c-1.1,1.1-2.72,1.34-4.05.72-.38-.17-.73-.42-1.04-.72l-10.98-10.97c-.31-.3-.55-.65-.71-1.03-.63-1.33-.39-2.97.71-4.07.63-.62,1.42-.97,2.24-1.04,1.02-.09,2.07.26,2.85,1.05l10.99,10.98c1.41,1.4,1.41,3.68,0,5.09Z"/>
  <path class="cls-1" d="M46.75,48.16c.21,2.45-.62,4.97-2.49,6.84-3.36,3.37-8.81,3.36-12.18,0-.35-.35-.67-.73-.94-1.13-.9-1.27-1.41-2.73-1.54-4.2-.21-2.45.61-4.97,2.48-6.84,1.5-1.49,3.39-2.31,5.34-2.49s4.02.34,5.72,1.54c.4.28.76.6,1.12.95,1.49,1.5,2.32,3.39,2.49,5.33Z"/>
</svg>