<?xml version="1.0" encoding="UTF-8"?>
<svg id="Layer_1" data-name="Layer 1" xmlns="http://www.w3.org/2000/svg" viewBox="0 0 72 72">
  <path d="M22.59,53.56c-1.71,1.69-4.47,1.69-6.16,0-.72-.72-1.17-1.68-1.26-2.69-.11-1.28.35-2.54,1.26-3.46l1.7-1.7,6.15,6.15-1.69,1.7ZM17.23,48.2c-.67.67-1.01,1.61-.93,2.56.07.76.39,1.45.93,1.99,1.25,1.25,3.29,1.26,4.55,0l.89-.89-4.55-4.55-.9.9Z"/>
  <path d="M53.77,29.75l-11.47,11.47-.39-.27c-1.55-1.09-3.45-1.6-5.34-1.44-1.88.16-3.65.99-4.99,2.32h0c-1.68,1.68-2.52,4.01-2.31,6.39.12,1.42.62,2.78,1.44,3.92l.28.39-1.17,1.18c-1.45,1.44-3.82,1.45-5.28,0l-1.45-1.45-6.8-6.81c-.7-.7-1.09-1.64-1.09-2.63,0-1,.41-1.91,1.09-2.63l23.97-23.96.33.76c.14.31.34.6.59.85l10.98,10.98c.26.26.56.47.87.61l.75.34ZM42.17,39.75l9.7-9.7c-.18-.13-.35-.28-.52-.44l-10.98-10.98c-.16-.16-.31-.33-.43-.51l-22.86,22.85h0c-.49.49-.76,1.14-.76,1.83,0,.69.27,1.34.76,1.83l6.8,6.81,1.45,1.45c1.02,1,2.67,1.01,3.68,0l.5-.5c-.77-1.22-1.25-2.62-1.38-4.08-.24-2.72.72-5.37,2.64-7.29h0c1.53-1.53,3.55-2.47,5.69-2.66,2-.17,4,.31,5.69,1.37Z"/>
  <path d="M57.25,29.61s0,0,0,0c-1.24,1.24-3.12,1.57-4.69.83-.42-.19-.83-.48-1.19-.83l-10.98-10.98c-.36-.35-.64-.76-.83-1.21-.74-1.56-.41-3.46.83-4.69.71-.69,1.62-1.12,2.59-1.2,1.23-.11,2.43.33,3.3,1.21l10.99,10.98c.79.79,1.22,1.83,1.22,2.94s-.43,2.16-1.22,2.95ZM56.44,28.81h0s0,0,0,0c.57-.57.89-1.34.89-2.14,0-.81-.32-1.57-.89-2.14l-10.99-10.98c-.63-.64-1.51-.96-2.4-.88-.7.06-1.38.37-1.89.88-.89.9-1.13,2.27-.59,3.42.14.33.34.62.6.87l10.98,10.98c.26.26.56.47.87.61,1.15.54,2.52.3,3.42-.6h0Z"/>
  <path d="M43.76,54s0,0-.01.01c-1.73,1.73-4.03,2.68-6.48,2.68-2.45,0-4.76-.96-6.49-2.69-.36-.36-.7-.77-1.01-1.21-.93-1.3-1.5-2.85-1.64-4.48-.24-2.72.72-5.37,2.64-7.29h0c1.53-1.53,3.55-2.47,5.69-2.66,2.16-.19,4.32.39,6.09,1.64.41.28.79.61,1.19,1.01,1.53,1.54,2.47,3.56,2.66,5.69.24,2.71-.73,5.37-2.65,7.29ZM42.95,53.2h0c1.69-1.69,2.53-4.02,2.32-6.39h0c-.16-1.86-.99-3.63-2.33-4.98-.35-.35-.69-.64-1.04-.88-1.55-1.09-3.45-1.6-5.34-1.44-1.88.16-3.65.99-4.99,2.32h0c-1.68,1.68-2.52,4.01-2.31,6.39.12,1.42.62,2.78,1.44,3.92.27.39.57.75.88,1.06,1.52,1.52,3.54,2.36,5.69,2.36,2.15,0,4.16-.83,5.68-2.35h0Z"/>
  <g>
    <rect x="33.67" y="43.92" width="7.2" height="7.2" rx="3.6" ry="3.6" transform="translate(-4 3.43) rotate(-5)"/>
    <path d="M40.21,50.47c-.69.69-1.59,1.11-2.58,1.2h0c-1.11.1-2.19-.24-3.04-.96-.85-.71-1.38-1.72-1.47-2.83-.2-2.29,1.5-4.31,3.79-4.52,2.29-.2,4.31,1.5,4.51,3.79.1,1.11-.24,2.19-.96,3.04-.08.1-.16.19-.25.27ZM35.13,45.37c-.61.61-.96,1.48-.88,2.41.07.81.45,1.54,1.07,2.06.62.52,1.41.77,2.21.7h0c.81-.07,1.55-.46,2.06-1.07.52-.62.77-1.41.7-2.21-.15-1.67-1.62-2.9-3.29-2.76-.74.06-1.39.39-1.88.88Z"/>
  </g>
</svg>