<?xml version="1.0" encoding="UTF-8"?>
<svg id="Layer_1" data-name="Layer 1" xmlns="http://www.w3.org/2000/svg" viewBox="0 0 72 72">
  <path d="M48.58,50.08h-25.17c-.31,0-.57-.25-.57-.57v-14.84c0-.31.25-.57.57-.57h25.17c.31,0,.57.25.57.57v14.84c0,.31-.25.57-.57.57ZM23.98,48.95h24.04v-13.7h-24.04v13.7Z"/>
  <path d="M52.2,35.24H19.8c-.24,0-.46-.16-.54-.39-.08-.23,0-.49.2-.63l16.2-12.19c.2-.15.48-.15.68,0l16.2,12.19c.2.15.27.4.2.63-.08.23-.29.39-.54.39ZM21.5,34.11h29.01l-14.5-10.91-14.5,10.91Z"/>
</svg>