<?xml version="1.0" encoding="UTF-8"?>
<svg id="Layer_1" data-name="Layer 1" xmlns="http://www.w3.org/2000/svg" viewBox="0 0 72 72">
  <path d="M36,69.57c-18.51,0-33.57-15.06-33.57-33.57S17.49,2.43,36,2.43s33.57,15.06,33.57,33.57-15.06,33.57-33.57,33.57ZM36,3.57C18.12,3.57,3.57,18.12,3.57,36s14.55,32.43,32.43,32.43,32.43-14.55,32.43-32.43S53.88,3.57,36,3.57Z"/>
  <path d="M30.25,58.15l-1.59-.31c-3.17-.62-7.05-4.97-8.67-7.72-3.2-5.42-3.87-14.42.63-19.51l.87-.98.12,1.3s.06.66.14,1.09h0c.22,1.15.86,2.04,1.76,2.45.85.38,1.82.29,2.74-.26,1.73-1.15,1.3-3.1.8-5.36-.65-2.95-1.46-6.61,3.6-8.43l.87-.31-.11.92c-.32,2.6.27,4.39,1.63,4.91,1.26.48,2.98-.24,4-1.69.65-.92,2.43-4.3-1.79-9.16l-.81-.93h1.24s.02,0,.03,0c2.72,0,5.21,1.12,7.01,3.14,1.91,2.14,2.79,5.05,2.44,7.96-.11.93-.41,1.93-.73,2.99-.52,1.75-1.06,3.55-.7,4.9.62,1.87,2.27,2.29,3.62,1.87,1.45-.46,2.72-1.91,2.1-4.01l-.59-1.99,1.52,1.42c3.5,3.26,4.95,8.13,3.96,13.35-1.18,6.21-5.41,11.59-10.78,13.71l-1.51.59.81-1.4c3.1-5.4.72-8.45-2.03-11.99-1.98-2.54-4.19-5.39-4.34-9.38-4.78,3.23-3.92,6.95-3.15,10.26.5,2.18.98,4.24-.61,5.52l-.19.1c-.87.27-1.6.19-2.17-.24-1.24-.93-1.29-3.18-1.28-4.97-1.05,1.18-1.7,2.7-1.87,4.39-.23,2.38.51,4.83,1.98,6.55l1.05,1.23ZM20.67,32.4c-3.14,4.73-2.5,12.41.3,17.15,1.25,2.11,3.91,5.17,6.3,6.54-.94-1.74-1.37-3.81-1.17-5.83.24-2.45,1.38-4.6,3.21-6.04l.88-.69.04,1.11c.01.27,0,.61,0,1-.02,1.4-.05,3.75.82,4.4.09.07.37.28,1.05.1.89-.8.63-2.17.13-4.31-.8-3.49-1.91-8.27,4.55-12.03l.91-.53-.06,1.05c-.23,4.14,1.97,6.96,4.09,9.69,2.52,3.24,5.12,6.57,2.87,11.76,4.27-2.31,7.65-7.02,8.63-12.19.8-4.22-.11-8.19-2.49-11.12-.17,1.82-1.49,3.15-3.04,3.64-1.82.57-4.17,0-5.04-2.62-.45-1.69.13-3.66.7-5.55.3-1.01.59-1.97.69-2.8.32-2.59-.47-5.17-2.16-7.07-1.31-1.47-3.03-2.4-4.94-2.68,3.67,4.95,1.76,8.51,1.04,9.53-1.33,1.9-3.57,2.78-5.33,2.1-.82-.32-2.61-1.44-2.43-5.16-3.2,1.53-2.66,3.97-2.04,6.78.51,2.33,1.1,4.97-1.3,6.56-1.25.74-2.63.86-3.81.33-1.2-.54-2.06-1.66-2.38-3.1Z"/>
</svg>