<?xml version="1.0" encoding="UTF-8"?>
<svg id="Layer_1" data-name="Layer 1" xmlns="http://www.w3.org/2000/svg" viewBox="0 0 72 72">
  <defs>
    <style>
      .cls-1 {
        fill: none;
        stroke: #000;
        stroke-linecap: round;
        stroke-linejoin: round;
        stroke-width: 1.33px;
      }
    </style>
  </defs>
  <g>
    <path d="M36.16,35.33h-2.87c-.37,0-.67-.3-.67-.67v-2.29c0-.37.3-.67.67-.67h2.87c.37,0,.67.3.67.67v2.29c0,.37-.3.67-.67.67ZM33.95,34h1.54v-.96h-1.54v.96Z"/>
    <path d="M32.38,26.3c-.18,0-.37,0-.6,0-.37,0-.66-.3-.66-.67,0-.37.3-.66.67-.66h1.15s.02,0,.03,0c.36.02.73.33.71.69-.01.45-.14.59-.73.63h0s0,0,0,0c0,0,0,0-.01,0h0s-.2,0-.2,0c-.11,0-.23,0-.36,0Z"/>
    <path d="M29.71,35.33h-5.1c-.37,0-.67-.3-.67-.67v-2.29c0-.37.3-.67.67-.67h5.1c.37,0,.67.3.67.67v2.29c0,.37-.3.67-.67.67ZM25.27,34h3.77v-.96h-3.77v.96Z"/>
    <path d="M29.71,31.01h-5.1c-.37,0-.67-.3-.67-.67v-2.54c0-1.56,1.25-2.83,2.79-2.83h2.97c.37,0,.67.3.67.67v4.71c0,.37-.3.67-.67.67ZM25.27,29.68h3.77v-3.38h-2.3c-.81,0-1.46.67-1.46,1.5v1.88Z"/>
    <path d="M36.16,31.01h-2.87c-.37,0-.67-.3-.67-.67v-4.71c0-.37.3-.67.67-.67h3.04c.35,0,1.24.08,1.98.83.52.53.81,1.26.81,2v2c0,.37-.3.67-.67.67h-1.64c-.06.31-.33.54-.65.54ZM33.95,29.68h1.55c.06-.31.33-.54.65-.54h1.62v-1.33c0-.4-.16-.79-.43-1.07-.4-.4-.89-.43-1.03-.43h-2.37v3.38Z"/>
    <path d="M29.71,33.04h-5.1c-.37,0-.67-.3-.67-.67v-2.04c0-.37.3-.67.67-.67h5.1c.37,0,.67.3.67.67v2.04c0,.37-.3.67-.67.67ZM25.27,31.71h3.77v-.71h-3.77v.71Z"/>
    <path d="M33.29,35.33h-3.58c-.37,0-.67-.3-.67-.67v-9.03c0-.37.3-.67.67-.67h2.08c.54,0,.87,0,1.04,0,.03,0,.07,0,.11,0h.35c.37,0,.67.3.67.67v9.03c0,.37-.3.67-.67.67ZM30.37,34h2.25v-7.7c-.23,0-.51,0-.84,0h-1.41v7.7Z"/>
    <path d="M32.38,26.3c-.18,0-.37,0-.6,0-.37,0-.66-.3-.66-.67,0-.37.3-.66.67-.66h1.15c.18,0,.39.08.52.21.12.13.24.31.23.49-.01.45-.14.59-.73.63h0s-.27.01-.27.01c-.09,0-.19,0-.3,0Z"/>
    <path d="M36.16,33.04h-2.87c-.37,0-.67-.3-.67-.67v-2.04c0-.37.3-.67.67-.67h2.87c.37,0,.67.3.67.67v2.04c0,.37-.3.67-.67.67ZM33.95,31.71h1.54v-.71h-1.54v.71Z"/>
    <path d="M31.53,26.29c-.24,0-.48-.13-.6-.37-.16-.33-.03-.73.3-.89.09-.05.19-.07.29-.07.05,0,.11,0,.18,0,.37,0,.67.3.67.67s-.3.67-.67.67c-.04,0-.12,0-.15,0h-.02Z"/>
    <path d="M32.94,26.3c-.17,0-.57,0-.91-.01-.37,0-.66-.31-.65-.68,0-.37.31-.63.68-.65.33,0,.72.01.89.01.37,0,.67.3.67.67s-.3.67-.67.67Z"/>
    <path d="M31.48,26.29h-.01c-.37,0-.67-.3-.67-.67s.3-.67.67-.67.67.3.67.67-.29.67-.66.67Z"/>
    <path d="M31.53,26.3h-.01c-.45,0-.87-.03-1.26-.08-.04,0-.08-.01-.12-.02-2.11-.28-3.51-1.1-4.03-2.31-.41-.95-.23-2.02.52-3.02.66-.89,1.62-1.25,2.58-.96,1.31.39,2.79,2.09,2.99,5.68,0,.01,0,.03,0,.04h0c0,.38-.3.67-.67.67ZM30.53,24.91c.09,0,.18.02.27.02-.27-2.24-1.18-3.52-1.98-3.76-.52-.15-.9.17-1.13.48-.32.43-.64,1.07-.36,1.7.33.77,1.47,1.35,3.05,1.54.06,0,.11,0,.16.02Z"/>
    <path d="M31.53,26.29c-.37,0-.67-.29-.67-.66h0c0-.37.3-.67.67-.67s.67.3.67.67-.3.67-.67.67Z"/>
    <path d="M30.33,26.22s-.08,0-.13-.01h-.04c-.34-.07-.57-.38-.54-.72.03-.34.32-.6.66-.6.19,0,.4.08.52.23h0c.12.14.18.32.16.5-.03.34-.3.6-.64.6Z"/>
    <path d="M32.04,26.28h-.34c-.18,0-.36-.08-.48-.21s-.19-.31-.18-.49c.18-3.22,1.81-4.98,3.35-5.28,1.14-.23,2.18.29,2.7,1.36.36.73.35,1.48-.04,2.16-.92,1.62-3.74,2.36-4.95,2.47-.02,0-.04,0-.06,0ZM34.9,21.58c-.08,0-.17,0-.25.03-.89.18-1.9,1.28-2.21,3.29,1.17-.21,2.94-.84,3.45-1.73.17-.29.17-.57,0-.92-.21-.43-.56-.67-.99-.67Z"/>
    <path d="M31.79,26.3c-.37,0-.75-.3-.75-.67s.3-.68.67-.68h.3c.35,0,.63.27.66.61.03.34-.21.65-.55.71-.12.02-.23.02-.32.02Z"/>
  </g>
  <g>
    <path d="M52.55,45.76h-8.47c-.37,0-.67-.3-.67-.67v-.16c0-.37.3-.67.67-.67h1.06v-6.89h-1.06c-.37,0-.67-.3-.67-.67v-.28c0-.37.3-.67.67-.67h8.47c.37,0,.67.3.67.67v8.66c0,.37-.3.67-.67.67ZM46.47,44.43h5.41v-7.33h-5.41v7.33Z"/>
    <path d="M42.2,35.33h-6.04c-.37,0-.67-.3-.67-.67v-4.87c0-.37.3-.67.67-.67h6.04c.37,0,.67.3.67.67v4.87c0,.37-.3.67-.67.67ZM36.82,34h4.71v-3.54h-4.71v3.54Z"/>
    <path d="M53.68,37.1h-8.13c-.37,0-.67-.3-.67-.67v-6.64c0-.37.3-.67.67-.67h8.13c.37,0,.67.3.67.67v6.64c0,.37-.3.67-.67.67ZM46.22,35.77h6.8v-5.31h-6.8v5.31Z"/>
    <path d="M45.56,37.1h-1.48c-.37,0-.67-.3-.67-.67v-1.11h-1.21c-.37,0-.67-.3-.67-.67v-4.87c0-.37.3-.67.67-.67h3.36c.37,0,.67.3.67.67v6.64c0,.37-.3.67-.67.67ZM44.74,35.77h.15v-5.31h-2.03v3.54h1.21c.37,0,.67.3.67.67v1.11Z"/>
    <path d="M45.8,45.6h-1.73c-.37,0-.67-.3-.67-.67v-8.22c0-.37.3-.67.67-.67h1.73c.37,0,.67.3.67.67v8.22c0,.37-.3.67-.67.67ZM44.74,44.27h.4v-6.89h-.4v6.89Z"/>
    <path d="M43.33,30.19s-.1,0-.14,0c-1.68-.06-3.63-1.09-3.97-2.71-.31-1.45.47-2.9,1.24-3.71.74-.78,1.6-1.15,2.36-1.04.7.11,1.31.56,1.78,1.29.83,1.31,1.15,3.51.72,5.01,0,0,0,0,0,0-.21.73-.95,1.16-1.99,1.16ZM42.53,24.03c-.31,0-.73.24-1.11.64-.69.73-1.06,1.77-.9,2.52.19.9,1.59,1.62,2.72,1.66.52.02.79-.12.81-.2.28-.99.12-2.84-.57-3.93-.26-.41-.55-.64-.86-.69-.03,0-.05,0-.08,0ZM44.68,28.84h0,0Z"/>
    <path d="M46.44,30.08c-.85,0-1.58-.25-1.98-.71-.55-.63.08-3.03.09-3.05.26-.96,1.04-3.91,3.29-3.76.7.04,1.45.55,2,1.37.74,1.1.95,2.44.57,3.58h0c-.42,1.25-1.55,2.17-3.02,2.47-.32.07-.64.1-.94.1ZM45.56,28.58c.26.15.85.25,1.56.11.48-.1,1.63-.45,2.02-1.59h0c.3-.88-.02-1.82-.41-2.41-.35-.52-.75-.77-.97-.78-.79-.04-1.42.89-1.93,2.78-.1.35-.27,1.46-.27,1.9ZM45.56,28.7h0Z"/>
  </g>
  <g>
    <path class="cls-1" d="M18.32,34.67v13.71h25.76v-13.71h-25.76ZM23.35,45.17l-.65.66c-.37.38-.98.38-1.35,0l-.65-.66c-.37-.38-.37-.99,0-1.37l.65-.67c.37-.38.98-.38,1.35,0l.65.67c.37.38.37.99,0,1.37ZM23.43,39.04l-.81.83c-.33.33-.86.33-1.19,0l-.81-.83c-.32-.34-.32-.87,0-1.21l.81-.83c.33-.33.86-.33,1.19,0l.81.83c.32.34.32.87,0,1.21ZM28.95,45.07l-.86.87c-.31.32-.83.32-1.14,0l-.86-.87c-.32-.33-.32-.84,0-1.17l.86-.87c.31-.32.83-.32,1.14,0l.86.87c.32.33.32.84,0,1.17ZM28.95,39.02l-.11.11-.75.76c-.31.33-.83.33-1.14,0l-.84-.86h-.01c-.32-.33-.32-.86,0-1.17l.86-.87c.31-.33.83-.33,1.14,0l.86.87c.32.32.32.84,0,1.16ZM35,45.07l-.86.87c-.31.32-.83.32-1.14,0l-.86-.87c-.32-.33-.32-.84,0-1.17l.86-.87c.31-.32.83-.32,1.14,0l.86.87c.32.33.32.84,0,1.17ZM35,39.02l-.11.11-.75.76c-.31.33-.83.33-1.14,0l-.75-.76-.11-.11c-.32-.32-.32-.84,0-1.16l.86-.87c.08-.08.18-.15.28-.19.29-.11.63-.05.86.19l.86.87c.32.32.32.84,0,1.16ZM40.92,44.93l-.86.87c-.32.33-.83.33-1.14,0l-.86-.87c-.31-.32-.31-.84,0-1.16l.86-.88c.32-.32.83-.32,1.14,0l.86.88c.31.32.31.84,0,1.16ZM40.92,39.02l-.86.87c-.32.33-.83.33-1.14,0l-.86-.87c-.14-.15-.22-.34-.23-.54-.02-.22.06-.46.23-.63l.3-.31.55-.57c.32-.33.83-.33,1.14,0l.86.87c.31.32.31.84,0,1.16Z"/>
    <path d="M22.02,40.79c-.4,0-.78-.16-1.06-.45l-.82-.83c-.58-.6-.58-1.54,0-2.14l.82-.84c.58-.58,1.56-.58,2.13,0l.82.84c.58.6.58,1.54,0,2.14h0s-.81.84-.81.84c-.29.29-.67.45-1.07.45ZM22.02,37.42s-.08,0-.12.05l-.81.83c-.07.08-.07.21,0,.28l.81.83c.08.08.15.08.24,0l.81-.83c.07-.08.07-.21,0-.29l-.81-.83s-.09-.05-.12-.05ZM23.43,39.04h0,0Z"/>
    <path d="M27.53,40.8c-.4,0-.77-.16-1.05-.45l-.8-.81s-.07-.07-.1-.1c-.53-.58-.51-1.49.05-2.05l.85-.87c.54-.57,1.54-.57,2.09,0l.85.87c.57.58.57,1.52,0,2.1l-.85.87c-.27.28-.65.44-1.04.44ZM26.58,38.56h0s.94.92.94.92c0,0,.09-.04.09-.04l.86-.87h0c.06-.06.06-.17,0-.23l-.95-.92s-.09.04-.09.04l-.86.87c-.06.06-.06.17,0,.23h0Z"/>
    <path d="M22.02,46.78c-.44,0-.84-.17-1.15-.49l-.65-.66c-.62-.64-.62-1.67,0-2.3l.65-.67c.62-.63,1.69-.63,2.3,0l.65.67c.62.63.62,1.67,0,2.3l-.65.66c-.31.31-.71.49-1.15.49ZM22.02,43.51s-.13.01-.2.08l-.65.67c-.12.12-.12.32,0,.45l.65.66c.14.15.25.15.4,0l.65-.66h0c.12-.12.12-.32,0-.44l-.65-.67c-.07-.07-.15-.08-.2-.08Z"/>
    <path d="M27.53,46.84c-.4,0-.77-.16-1.04-.44l-.85-.87c-.58-.59-.58-1.51,0-2.1l.86-.87c.55-.56,1.53-.57,2.09,0l.85.87c.58.59.58,1.51,0,2.1h0s-.86.87-.86.87c-.28.28-.65.44-1.04.44ZM27.53,43.45s-.06,0-.09.04l-.86.87c-.06.07-.06.17,0,.24l.85.87c.07.07.12.07.19,0l.86-.87c.06-.07.06-.17,0-.24l-.85-.87s-.07-.04-.09-.04ZM28.95,45.07h0,0Z"/>
    <path d="M33.57,46.84c-.4,0-.77-.16-1.04-.44l-.86-.87c-.58-.59-.58-1.51,0-2.1l.85-.87c.28-.28.65-.44,1.04-.44h0c.4,0,.77.16,1.04.44l.85.87c.58.59.58,1.51,0,2.1h0s-.86.87-.86.87c-.28.28-.65.44-1.04.44h0ZM33.57,43.45s-.06,0-.09.04l-.85.87c-.07.07-.07.17,0,.24l.86.87s.07.04.09.04h0s.06,0,.09-.04l.86-.87c.06-.07.06-.17,0-.24l-.85-.87s-.07-.04-.09-.04h0ZM35,45.07h0,0Z"/>
    <path d="M33.57,40.8c-.4,0-.77-.16-1.05-.45l-.85-.87c-.57-.57-.57-1.52,0-2.1l.85-.87c.15-.15.32-.27.51-.34.57-.21,1.19-.07,1.59.35l.85.87c.57.58.57,1.52,0,2.1l-.85.87c-.27.28-.64.44-1.04.44h0ZM33.57,37.4s-.04,0-.05,0l-.9.91c-.06.06-.06.18,0,.23l.95.92s.09-.04.09-.04l.86-.87h0c.06-.06.06-.17,0-.23l-.86-.88s-.07-.05-.1-.05Z"/>
    <path d="M39.49,46.72c-.4,0-.77-.16-1.05-.44l-.86-.87c-.56-.58-.56-1.52,0-2.09l.85-.88c.58-.58,1.52-.58,2.09,0l.86.89c.56.58.56,1.51,0,2.09h0l-.86.87c-.28.29-.65.44-1.05.44ZM39.5,43.33s-.08.01-.11.04l-.85.87c-.06.06-.06.17,0,.23l.86.87c.07.07.12.07.19,0l.86-.87c.06-.06.06-.17,0-.23l-.86-.88s-.06-.03-.09-.03ZM40.92,44.93h0,0Z"/>
    <path d="M39.49,40.8c-.4,0-.77-.16-1.05-.44l-.85-.87c-.26-.28-.41-.63-.42-.98-.03-.39.12-.8.42-1.11l.86-.87c.56-.57,1.54-.57,2.1,0l.85.87c.57.58.57,1.52,0,2.09,0,0,0,0,0,0l-.86.87c-.28.29-.65.44-1.05.44ZM39.49,37.41s-.06,0-.1.04l-.86.87s-.04.08-.04.11c0,.08.03.11.05.14l.84.86c.07.07.12.07.19,0l.86-.87c.06-.06.06-.17,0-.23l-.85-.87s-.07-.04-.1-.04ZM40.92,39.02h0,0Z"/>
  </g>
</svg>