<?xml version="1.0" encoding="UTF-8"?>
<svg id="Layer_1" data-name="Layer 1" xmlns="http://www.w3.org/2000/svg" viewBox="0 0 201.5 108.13">
  <polygon points="56.01 70.05 55.39 69.09 60.04 66.09 62.95 61.1 63.93 61.67 60.88 66.89 56.01 70.05"/>
  <polygon points="38.29 69.03 33.23 66.15 33.88 59.94 35 60.06 34.44 65.53 38.85 68.05 38.29 69.03"/>
  <polygon points="74.65 67.21 70.9 63.73 67.35 64.27 67.18 63.15 71.27 62.53 75.42 66.38 74.65 67.21"/>
  <polygon points="56.25 32.36 48.25 31.59 45.17 29.21 45.86 28.31 48.68 30.49 56.36 31.23 56.25 32.36"/>
  <polygon points="75 32.31 74.55 31.27 78.41 29.62 82.41 22.94 83.38 23.52 79.19 30.52 75 32.31"/>
  <rect x="107.21" y="24.74" width="11.03" height="1.13" transform="translate(41.14 115.98) rotate(-64.36)"/>
  <polygon points="94.04 33.06 89.09 29.05 88.67 23.27 89.8 23.19 90.18 28.48 94.75 32.18 94.04 33.06"/>
  <polygon points="90.27 71.79 89.51 70.95 95.4 65.67 99.18 64.42 99.53 65.5 95.87 66.71 90.27 71.79"/>
  <polygon points="112.24 70.61 102.73 69.08 105.78 63.28 106.78 63.8 104.47 68.21 112.42 69.49 112.24 70.61"/>
  <polygon points="128.98 69.26 128.57 68.2 134.62 65.85 131.72 62.27 132.6 61.55 136.48 66.35 128.98 69.26"/>
  <polygon points="130.71 68.59 129.87 67.82 131.62 65.91 133.69 66.31 133.48 67.42 132.03 67.14 130.71 68.59"/>
  <polygon points="108.46 70.02 107.09 68.77 105.9 69.41 105.36 68.41 107.25 67.38 109.22 69.18 108.46 70.02"/>
  <polygon points="145.93 69.75 142.54 64.37 146.63 58.72 147.55 59.38 143.91 64.42 146.89 69.15 145.93 69.75"/>
  <polygon points="162.62 71.06 161.69 70.41 166.91 62.83 160.13 57.1 160.86 56.23 168.43 62.62 162.62 71.06"/>
  <polygon points="121.95 38.36 120.97 37.79 123.73 33.09 128.43 29.24 129.15 30.12 124.53 33.9 121.95 38.36"/>
  <polygon points="144.02 33.83 143.38 32.89 150.37 28.13 153.28 20.77 154.34 21.18 151.3 28.87 144.02 33.83"/>
</svg>