<?xml version="1.0" encoding="UTF-8"?>
<svg id="Layer_1" data-name="Layer 1" xmlns="http://www.w3.org/2000/svg" viewBox="0 0 201.5 108.13">
  <path d="M47.52,91.78c-6.27,0-11.37-4.87-11.37-10.86,0-2.5.91-4.94,2.57-6.87l.56-.65.38.77c1.42,2.9,4.51,4.77,7.86,4.77,2.34,0,4.52-.87,6.16-2.44.72-.69,1.29-1.47,1.72-2.32l.38-.77.56.65c1.65,1.93,2.56,4.37,2.56,6.86,0,2.9-1.19,5.63-3.34,7.68-2.15,2.05-5,3.18-8.03,3.18ZM39.06,75.44c-1.17,1.61-1.78,3.49-1.78,5.48,0,5.36,4.59,9.72,10.23,9.72,2.74,0,5.31-1.02,7.25-2.86,1.92-1.83,2.98-4.27,2.98-6.86,0-1.95-.62-3.86-1.77-5.47-.42.67-.93,1.3-1.52,1.87-1.84,1.78-4.31,2.76-6.94,2.76-3.47,0-6.7-1.79-8.45-4.64Z"/>
  <path d="M47.52,80.08c-3.78,0-7.26-2.12-8.88-5.41-.62-1.26-.94-2.61-.94-4.03,0-2.36.9-4.61,2.55-6.34l.46-.49.4.54c1.49,1.99,3.88,3.17,6.41,3.17,2.13,0,4.12-.8,5.6-2.25.3-.29.57-.6.81-.92l.4-.54.46.49c1.64,1.74,2.55,3.99,2.55,6.34,0,1.4-.32,2.76-.94,4.04-.48.97-1.14,1.86-1.95,2.64-1.84,1.78-4.31,2.76-6.94,2.76ZM40.64,65.57c-1.17,1.44-1.81,3.22-1.81,5.07,0,1.24.28,2.43.82,3.53,1.43,2.9,4.51,4.77,7.86,4.77,2.34,0,4.52-.87,6.16-2.44.72-.69,1.29-1.47,1.72-2.32.54-1.12.82-2.31.82-3.54,0-1.84-.64-3.62-1.81-5.07-.16.18-.32.35-.49.52-1.7,1.66-3.97,2.57-6.39,2.57-2.65,0-5.17-1.14-6.88-3.09Z"/>
  <path d="M47.52,68.66c-2.88,0-5.62-1.36-7.31-3.63-1.13-1.5-1.73-3.29-1.73-5.17,0-2.35.94-4.56,2.65-6.23,1.71-1.66,3.98-2.57,6.4-2.57s4.69.91,6.4,2.57c1.72,1.66,2.66,3.87,2.66,6.23,0,1.88-.6,3.67-1.74,5.17-.27.37-.59.73-.93,1.06-1.7,1.66-3.97,2.57-6.39,2.57ZM47.52,52.2c-2.12,0-4.11.8-5.61,2.25-1.49,1.45-2.31,3.37-2.31,5.41,0,1.63.52,3.18,1.5,4.49,1.49,1.99,3.88,3.17,6.41,3.17,2.13,0,4.12-.8,5.6-2.25.3-.29.57-.6.81-.92.99-1.31,1.51-2.86,1.51-4.49,0-2.04-.82-3.97-2.32-5.41-1.49-1.45-3.48-2.25-5.61-2.25Z"/>
  <path d="M65.52,53.62c-6.27,0-11.37-4.87-11.37-10.86,0-2.5.91-4.94,2.57-6.87l.56-.65.38.77c1.42,2.9,4.51,4.77,7.86,4.77,2.34,0,4.53-.87,6.16-2.44.72-.69,1.29-1.47,1.72-2.32l.38-.77.56.65c1.65,1.93,2.56,4.37,2.56,6.86,0,2.9-1.19,5.63-3.34,7.68-2.15,2.05-5,3.18-8.03,3.18ZM57.06,37.28c-1.17,1.61-1.78,3.49-1.78,5.48,0,5.36,4.59,9.72,10.23,9.72,2.74,0,5.31-1.02,7.25-2.86,1.92-1.84,2.98-4.27,2.98-6.86,0-1.95-.62-3.86-1.77-5.47-.42.67-.93,1.3-1.52,1.87-1.84,1.78-4.31,2.76-6.94,2.76-3.47,0-6.7-1.79-8.45-4.64Z"/>
  <path d="M65.52,41.92c-3.78,0-7.26-2.12-8.88-5.41-.62-1.25-.94-2.61-.94-4.03,0-2.36.91-4.61,2.55-6.34l.46-.49.4.54c1.49,1.99,3.88,3.17,6.41,3.17,2.13,0,4.12-.8,5.6-2.25.3-.29.57-.6.81-.92l.4-.54.46.49c1.64,1.74,2.55,3.99,2.55,6.34,0,1.4-.32,2.76-.94,4.04-.48.98-1.14,1.86-1.95,2.64-1.84,1.78-4.31,2.76-6.94,2.76ZM58.64,27.41c-1.17,1.44-1.81,3.22-1.81,5.07,0,1.24.28,2.43.82,3.53,1.43,2.9,4.51,4.77,7.86,4.77,2.34,0,4.53-.87,6.16-2.44.72-.69,1.29-1.47,1.72-2.32.54-1.12.82-2.31.82-3.54,0-1.84-.64-3.62-1.81-5.07-.16.18-.32.35-.49.52-1.7,1.66-3.97,2.57-6.39,2.57-2.65,0-5.17-1.14-6.88-3.09Z"/>
  <path d="M65.52,30.5c-2.88,0-5.62-1.36-7.31-3.63-1.13-1.5-1.73-3.29-1.73-5.17,0-2.35.94-4.56,2.65-6.23,1.71-1.66,3.98-2.57,6.4-2.57s4.69.91,6.4,2.57c1.72,1.66,2.66,3.87,2.66,6.23,0,1.88-.6,3.67-1.74,5.17-.27.37-.59.73-.93,1.05-1.7,1.66-3.97,2.57-6.39,2.57ZM65.52,14.04c-2.12,0-4.11.8-5.61,2.25-1.49,1.45-2.31,3.37-2.31,5.41,0,1.63.52,3.18,1.5,4.49,1.49,1.99,3.88,3.17,6.41,3.17,2.13,0,4.12-.8,5.6-2.25.3-.29.57-.6.81-.92.99-1.31,1.51-2.86,1.51-4.49,0-2.04-.82-3.97-2.32-5.41-1.49-1.45-3.48-2.25-5.61-2.25Z"/>
  <path d="M83.52,91.78c-6.27,0-11.37-4.87-11.37-10.86,0-2.5.91-4.94,2.57-6.87l.56-.65.38.77c1.42,2.9,4.51,4.77,7.86,4.77,2.34,0,4.52-.87,6.16-2.44.72-.69,1.29-1.47,1.72-2.32l.38-.77.56.65c1.65,1.93,2.56,4.37,2.56,6.86,0,2.9-1.19,5.63-3.34,7.68-2.15,2.05-5,3.18-8.03,3.18ZM75.06,75.44c-1.17,1.61-1.78,3.49-1.78,5.48,0,5.36,4.59,9.72,10.23,9.72,2.74,0,5.31-1.02,7.25-2.86,1.92-1.83,2.98-4.27,2.98-6.86,0-1.95-.62-3.86-1.77-5.47-.42.67-.93,1.3-1.52,1.87-1.84,1.78-4.31,2.76-6.94,2.76-3.47,0-6.7-1.79-8.45-4.64Z"/>
  <path d="M83.52,80.08c-3.78,0-7.26-2.12-8.88-5.41-.62-1.26-.94-2.61-.94-4.03,0-2.36.9-4.61,2.55-6.34l.46-.49.4.54c1.49,1.99,3.88,3.17,6.41,3.17,2.13,0,4.12-.8,5.6-2.25.3-.29.57-.6.81-.92l.4-.54.46.49c1.64,1.74,2.55,3.99,2.55,6.34,0,1.4-.32,2.76-.94,4.04-.48.97-1.14,1.86-1.95,2.64-1.84,1.78-4.31,2.76-6.94,2.76ZM76.64,65.57c-1.17,1.44-1.81,3.22-1.81,5.07,0,1.24.28,2.43.82,3.53,1.43,2.9,4.51,4.77,7.86,4.77,2.34,0,4.52-.87,6.16-2.44.72-.69,1.29-1.47,1.72-2.32.54-1.12.82-2.31.82-3.54,0-1.84-.64-3.62-1.81-5.07-.16.18-.32.35-.49.52-1.7,1.66-3.97,2.57-6.39,2.57-2.65,0-5.17-1.14-6.88-3.09Z"/>
  <path d="M83.52,68.66c-2.88,0-5.62-1.36-7.31-3.63-1.13-1.5-1.73-3.29-1.73-5.17,0-2.35.94-4.56,2.65-6.23,1.71-1.66,3.98-2.57,6.4-2.57s4.69.91,6.4,2.57c1.72,1.66,2.66,3.87,2.66,6.23,0,1.88-.6,3.67-1.74,5.17-.27.37-.59.73-.93,1.06-1.7,1.66-3.97,2.57-6.39,2.57ZM83.52,52.2c-2.12,0-4.11.8-5.61,2.25-1.49,1.45-2.31,3.37-2.31,5.41,0,1.63.52,3.18,1.5,4.49,1.49,1.99,3.88,3.17,6.41,3.17,2.13,0,4.12-.8,5.6-2.25.3-.29.57-.6.81-.92.99-1.31,1.51-2.86,1.51-4.49,0-2.04-.82-3.97-2.32-5.41-1.49-1.45-3.48-2.25-5.61-2.25Z"/>
  <path d="M101.52,53.62c-6.27,0-11.37-4.87-11.37-10.86,0-2.5.91-4.94,2.57-6.87l.56-.65.38.77c1.42,2.9,4.51,4.77,7.86,4.77,2.34,0,4.53-.87,6.16-2.44.72-.69,1.29-1.47,1.72-2.32l.38-.77.56.65c1.65,1.93,2.56,4.37,2.56,6.86,0,2.9-1.19,5.63-3.34,7.68-2.15,2.05-5,3.18-8.03,3.18ZM93.06,37.28c-1.17,1.61-1.78,3.49-1.78,5.48,0,5.36,4.59,9.72,10.23,9.72,2.74,0,5.31-1.02,7.25-2.86,1.92-1.84,2.98-4.27,2.98-6.86,0-1.95-.62-3.86-1.77-5.47-.42.67-.93,1.3-1.52,1.87-1.84,1.78-4.31,2.76-6.94,2.76-3.47,0-6.7-1.79-8.45-4.64Z"/>
  <path d="M101.52,41.92c-3.78,0-7.26-2.12-8.88-5.41-.62-1.25-.94-2.61-.94-4.03,0-2.36.91-4.61,2.55-6.34l.46-.49.4.54c1.49,1.99,3.88,3.17,6.41,3.17,2.13,0,4.12-.8,5.6-2.25.3-.29.57-.6.81-.92l.4-.54.46.49c1.64,1.74,2.55,3.99,2.55,6.34,0,1.4-.32,2.76-.94,4.04-.48.98-1.14,1.86-1.95,2.64-1.84,1.78-4.31,2.76-6.94,2.76ZM94.64,27.41c-1.17,1.44-1.81,3.22-1.81,5.07,0,1.24.28,2.43.82,3.53,1.43,2.9,4.51,4.77,7.86,4.77,2.34,0,4.53-.87,6.16-2.44.72-.69,1.29-1.47,1.72-2.32.54-1.12.82-2.31.82-3.54,0-1.84-.64-3.62-1.81-5.07-.16.18-.32.35-.49.52-1.7,1.66-3.97,2.57-6.39,2.57-2.65,0-5.17-1.14-6.88-3.09Z"/>
  <path d="M101.52,30.5c-2.88,0-5.62-1.36-7.31-3.63-1.13-1.5-1.73-3.29-1.73-5.17,0-2.35.94-4.56,2.65-6.23,1.71-1.66,3.98-2.57,6.4-2.57s4.69.91,6.4,2.57c1.72,1.66,2.66,3.87,2.66,6.23,0,1.88-.6,3.67-1.74,5.17-.27.37-.59.73-.93,1.05-1.7,1.66-3.97,2.57-6.39,2.57ZM101.52,14.04c-2.12,0-4.11.8-5.61,2.25-1.49,1.45-2.31,3.37-2.31,5.41,0,1.63.52,3.18,1.5,4.49,1.49,1.99,3.88,3.17,6.41,3.17,2.13,0,4.12-.8,5.6-2.25.3-.29.57-.6.81-.92.99-1.31,1.51-2.86,1.51-4.49,0-2.04-.82-3.97-2.32-5.41-1.49-1.45-3.48-2.25-5.61-2.25Z"/>
  <path d="M119.52,91.78c-6.27,0-11.37-4.87-11.37-10.86,0-2.5.91-4.94,2.57-6.87l.56-.65.38.77c1.42,2.9,4.51,4.77,7.86,4.77,2.34,0,4.52-.87,6.16-2.44.72-.69,1.29-1.47,1.72-2.32l.38-.77.56.65c1.65,1.93,2.56,4.37,2.56,6.86,0,2.9-1.19,5.63-3.34,7.68-2.15,2.05-5,3.18-8.03,3.18ZM111.06,75.44c-1.17,1.61-1.78,3.49-1.78,5.48,0,5.36,4.59,9.72,10.23,9.72,2.74,0,5.31-1.02,7.25-2.86,1.92-1.83,2.98-4.27,2.98-6.86,0-1.95-.62-3.86-1.77-5.47-.42.67-.93,1.3-1.52,1.87-1.84,1.78-4.31,2.76-6.94,2.76-3.47,0-6.7-1.79-8.45-4.64Z"/>
  <path d="M119.52,80.08c-3.78,0-7.26-2.12-8.88-5.41-.62-1.26-.94-2.61-.94-4.03,0-2.36.9-4.61,2.55-6.34l.46-.49.4.54c1.49,1.99,3.88,3.17,6.41,3.17,2.13,0,4.12-.8,5.6-2.25.3-.29.57-.6.81-.92l.4-.54.46.49c1.64,1.74,2.55,3.99,2.55,6.34,0,1.4-.32,2.76-.94,4.04-.48.97-1.14,1.86-1.95,2.64-1.84,1.78-4.31,2.76-6.94,2.76ZM112.64,65.57c-1.17,1.44-1.81,3.22-1.81,5.07,0,1.24.28,2.43.82,3.53,1.43,2.9,4.51,4.77,7.86,4.77,2.34,0,4.52-.87,6.16-2.44.72-.69,1.29-1.47,1.72-2.32.54-1.12.82-2.31.82-3.54,0-1.84-.64-3.62-1.81-5.07-.16.18-.32.35-.49.52-1.7,1.66-3.97,2.57-6.39,2.57-2.65,0-5.17-1.14-6.88-3.09Z"/>
  <path d="M119.52,68.66c-2.88,0-5.62-1.36-7.31-3.63-1.13-1.5-1.73-3.29-1.73-5.17,0-2.35.94-4.56,2.65-6.23,1.71-1.66,3.98-2.57,6.4-2.57s4.69.91,6.4,2.57c1.72,1.66,2.66,3.87,2.66,6.23,0,1.88-.6,3.67-1.74,5.17-.27.37-.59.73-.93,1.06-1.7,1.66-3.97,2.57-6.39,2.57ZM119.52,52.2c-2.12,0-4.11.8-5.61,2.25-1.49,1.45-2.31,3.37-2.31,5.41,0,1.63.52,3.18,1.5,4.49,1.49,1.99,3.88,3.17,6.41,3.17,2.13,0,4.12-.8,5.6-2.25.3-.29.57-.6.81-.92.99-1.31,1.51-2.86,1.51-4.49,0-2.04-.82-3.97-2.32-5.41-1.49-1.45-3.48-2.25-5.61-2.25Z"/>
  <path d="M137.52,53.62c-6.27,0-11.37-4.87-11.37-10.86,0-2.5.91-4.94,2.57-6.87l.56-.65.38.77c1.42,2.9,4.51,4.77,7.86,4.77,2.34,0,4.53-.87,6.16-2.44.72-.69,1.29-1.47,1.72-2.32l.38-.77.56.65c1.65,1.93,2.56,4.37,2.56,6.86,0,2.9-1.19,5.63-3.34,7.68-2.15,2.05-5,3.18-8.03,3.18ZM129.06,37.28c-1.17,1.61-1.78,3.49-1.78,5.48,0,5.36,4.59,9.72,10.23,9.72,2.74,0,5.31-1.02,7.25-2.86,1.92-1.84,2.98-4.27,2.98-6.86,0-1.95-.62-3.86-1.77-5.47-.42.67-.93,1.3-1.52,1.87-1.84,1.78-4.31,2.76-6.94,2.76-3.47,0-6.7-1.79-8.45-4.64Z"/>
  <path d="M137.52,41.92c-3.78,0-7.26-2.12-8.88-5.41-.62-1.25-.94-2.61-.94-4.03,0-2.36.91-4.61,2.55-6.34l.46-.49.4.54c1.49,1.99,3.88,3.17,6.41,3.17,2.13,0,4.12-.8,5.6-2.25.3-.29.57-.6.81-.92l.4-.54.46.49c1.64,1.74,2.55,3.99,2.55,6.34,0,1.4-.32,2.76-.94,4.04-.48.98-1.14,1.86-1.95,2.64-1.84,1.78-4.31,2.76-6.94,2.76ZM130.64,27.41c-1.17,1.44-1.81,3.22-1.81,5.07,0,1.24.28,2.43.82,3.53,1.43,2.9,4.51,4.77,7.86,4.77,2.34,0,4.53-.87,6.16-2.44.72-.69,1.29-1.47,1.72-2.32.54-1.12.82-2.31.82-3.54,0-1.84-.64-3.62-1.81-5.07-.16.18-.32.35-.49.52-1.7,1.66-3.97,2.57-6.39,2.57-2.65,0-5.17-1.14-6.88-3.09Z"/>
  <path d="M137.52,30.5c-2.88,0-5.62-1.36-7.31-3.63-1.13-1.5-1.73-3.29-1.73-5.17,0-2.35.94-4.56,2.65-6.23,1.71-1.66,3.98-2.57,6.4-2.57s4.69.91,6.4,2.57c1.72,1.66,2.66,3.87,2.66,6.23,0,1.88-.6,3.67-1.74,5.17-.27.37-.59.73-.93,1.05-1.7,1.66-3.97,2.57-6.39,2.57ZM137.52,14.04c-2.12,0-4.11.8-5.61,2.25-1.49,1.45-2.31,3.37-2.31,5.41,0,1.63.52,3.18,1.5,4.49,1.49,1.99,3.88,3.17,6.41,3.17,2.13,0,4.12-.8,5.6-2.25.3-.29.57-.6.81-.92.99-1.31,1.51-2.86,1.51-4.49,0-2.04-.82-3.97-2.32-5.41-1.49-1.45-3.48-2.25-5.61-2.25Z"/>
  <path d="M155.52,91.78c-6.27,0-11.37-4.87-11.37-10.86,0-2.5.91-4.94,2.57-6.87l.56-.65.38.77c1.42,2.9,4.51,4.77,7.86,4.77,2.34,0,4.52-.87,6.16-2.44.72-.69,1.29-1.47,1.72-2.32l.38-.77.56.65c1.65,1.93,2.56,4.37,2.56,6.86,0,2.9-1.19,5.63-3.34,7.68-2.15,2.05-5,3.18-8.03,3.18ZM147.06,75.44c-1.17,1.61-1.78,3.49-1.78,5.48,0,5.36,4.59,9.72,10.23,9.72,2.74,0,5.31-1.02,7.25-2.86,1.92-1.83,2.98-4.27,2.98-6.86,0-1.95-.62-3.86-1.77-5.47-.42.67-.93,1.3-1.52,1.87-1.84,1.78-4.31,2.76-6.94,2.76-3.47,0-6.7-1.79-8.45-4.64Z"/>
  <path d="M155.52,80.08c-3.78,0-7.26-2.12-8.88-5.41-.62-1.26-.94-2.61-.94-4.03,0-2.36.9-4.61,2.55-6.34l.46-.49.4.54c1.49,1.99,3.88,3.17,6.41,3.17,2.13,0,4.12-.8,5.6-2.25.3-.29.57-.6.81-.92l.4-.54.46.49c1.64,1.74,2.55,3.99,2.55,6.34,0,1.4-.32,2.76-.94,4.04-.48.97-1.14,1.86-1.95,2.64-1.84,1.78-4.31,2.76-6.94,2.76ZM148.64,65.57c-1.17,1.44-1.81,3.22-1.81,5.07,0,1.24.28,2.43.82,3.53,1.43,2.9,4.51,4.77,7.86,4.77,2.34,0,4.52-.87,6.16-2.44.72-.69,1.29-1.47,1.72-2.32.54-1.12.82-2.31.82-3.54,0-1.84-.64-3.62-1.81-5.07-.16.18-.32.35-.49.52-1.7,1.66-3.97,2.57-6.39,2.57-2.65,0-5.17-1.14-6.88-3.09Z"/>
  <path d="M155.52,68.66c-2.88,0-5.62-1.36-7.31-3.63-1.13-1.5-1.73-3.29-1.73-5.17,0-2.35.94-4.56,2.65-6.23,1.71-1.66,3.98-2.57,6.4-2.57s4.69.91,6.4,2.57c1.72,1.66,2.66,3.87,2.66,6.23,0,1.88-.6,3.67-1.74,5.17-.27.37-.59.73-.93,1.06-1.7,1.66-3.97,2.57-6.39,2.57ZM155.52,52.2c-2.12,0-4.11.8-5.61,2.25-1.49,1.45-2.31,3.37-2.31,5.41,0,1.63.52,3.18,1.5,4.49,1.49,1.99,3.88,3.17,6.41,3.17,2.13,0,4.12-.8,5.6-2.25.3-.29.57-.6.81-.92.99-1.31,1.51-2.86,1.51-4.49,0-2.04-.82-3.97-2.32-5.41-1.49-1.45-3.48-2.25-5.61-2.25Z"/>
</svg>