<?xml version="1.0" encoding="UTF-8"?>
<svg id="Layer_1" data-name="Layer 1" xmlns="http://www.w3.org/2000/svg" viewBox="0 0 201.5 108.13">
  <path d="M17.29,39.82v-9h4c.55,0,1.02.2,1.41.59.39.39.59.86.59,1.41v1c0,.55-.2,1.02-.59,1.41-.39.39-.86.59-1.41.59h-2.01v4h-2ZM19.29,34.83h1c.27,0,.51-.1.71-.3.2-.2.3-.43.3-.71v-1c0-.27-.1-.51-.3-.7s-.43-.29-.71-.29h-1v3Z"/>
  <path d="M25.29,39.82v-9h4c.55,0,1.02.2,1.41.59.39.39.59.86.59,1.41v.54c0,.45-.15.88-.46,1.29-.31.41-.82.62-1.54.62h.99c.28,0,.51.1.71.29.2.2.29.43.29.71v3.54h-2v-3c0-.28-.1-.51-.3-.71-.2-.2-.43-.29-.71-.29h-1v4h-2ZM27.29,34.83h1c.27,0,.51-.1.71-.3s.3-.43.3-.71v-1c0-.27-.1-.51-.3-.7-.2-.2-.43-.29-.71-.29h-1v3Z"/>
  <path d="M33.29,39.82v-9h5v1h-3v3h2.01v.99h-2.01v3h3v1h-5Z"/>
  <path d="M45.29,32.82h-.99c-.09-.67-.4-1-.95-1-.35,0-.61.08-.79.25-.18.17-.27.42-.27.75,0,.25.1.48.29.7l2.12,2.38c.39.44.59.91.59,1.41v.51c0,.54-.2,1.01-.59,1.4s-.86.59-1.41.59h-1c-.66,0-1.16-.17-1.5-.5-.33-.33-.5-.83-.5-1.5h1c0,.07,0,.12,0,.16,0,.27.1.48.31.62.21.14.44.21.69.21.36,0,.61-.09.77-.26s.23-.42.23-.75c0-.25-.1-.49-.29-.7l-2.12-2.37c-.39-.43-.59-.9-.59-1.41v-.51c0-.54.2-1.01.59-1.41s.86-.59,1.41-.59h1c1.25,0,1.92.67,2,2Z"/>
  <path d="M47.29,39.82v-9h5v1h-3v3h2.01v.99h-2.01v3h3v1h-5Z"/>
  <path d="M54.3,39.82v-9h.46l5.54,5v-5h1v9h-.46l-5.54-5v5h-1Z"/>
  <path d="M64.29,39.82v-8h-2v-1h6v1h-2v8h-2.01Z"/>
  <path d="M70.29,39.82v-9h2v9h-2Z"/>
  <path d="M75.3,39.82v-9h.46l5.54,5v-5h1v9h-.46l-5.54-5v5h-1Z"/>
  <path d="M84.3,39.82v-7c0-.55.2-1.02.59-1.41s.86-.59,1.41-.59h2.01c.55,0,1.02.2,1.41.59.39.39.59.86.59,1.41v7h-2v-4h-2.01v4h-2ZM86.29,34.83h2.01v-2.01c0-.27-.1-.51-.3-.7-.2-.2-.43-.29-.71-.29s-.51.1-.71.29c-.2.2-.29.43-.29.7v2.01Z"/>
  <path d="M93.29,39.82v-8h-2v-1h6v1h-2v8h-2.01Z"/>
  <path d="M100.29,30.82h2.01c.55,0,1.02.2,1.41.59.39.39.59.86.59,1.41v5.01c0,.54-.2,1.01-.59,1.4-.39.4-.86.59-1.41.59h-2.01c-.55,0-1.02-.2-1.41-.59s-.59-.86-.59-1.41v-5.01c0-.55.2-1.02.59-1.41s.86-.59,1.41-.59ZM100.29,32.82v5.01c0,.27.1.5.29.7.2.2.43.3.71.3s.51-.1.71-.3c.2-.2.29-.43.29-.7v-5.01c0-.27-.1-.51-.3-.7-.2-.2-.43-.29-.71-.29s-.51.1-.71.29c-.2.2-.29.43-.29.7Z"/>
  <path d="M106.29,39.82v-9h4c.55,0,1.02.2,1.41.59.39.39.59.86.59,1.41v.54c0,.45-.15.88-.46,1.29-.31.41-.82.62-1.54.62h.99c.28,0,.51.1.71.29.2.2.29.43.29.71v3.54h-2v-3c0-.28-.1-.51-.3-.71-.2-.2-.43-.29-.71-.29h-1v4h-2ZM108.29,34.83h1c.27,0,.51-.1.71-.3s.3-.43.3-.71v-1c0-.27-.1-.51-.3-.7-.2-.2-.43-.29-.71-.29h-1v3Z"/>
</svg>