<?xml version="1.0" encoding="UTF-8"?>
<svg id="Layer_1" data-name="Layer 1" xmlns="http://www.w3.org/2000/svg" viewBox="0 0 201.5 108.13">
  <path d="M20.69,19.12h2v2h1v1h-1v4c0,.32.11.57.32.74.21.17.41.26.59.26h.09v1h-1c-.55,0-1.02-.2-1.41-.59-.39-.39-.59-.86-.59-1.41v-4h-1v-1h1v-2Z"/>
  <path d="M25.68,28.12v-9h2v3c.04-.34.14-.59.31-.75.17-.17.4-.25.69-.25h1c.55,0,1.02.2,1.41.59.39.4.59.87.59,1.41v5h-2v-5c0-.27-.1-.51-.3-.71-.2-.2-.43-.29-.71-.29s-.51.1-.71.29c-.2.2-.29.43-.29.71v5h-2Z"/>
  <path d="M39.68,25.12h-4v1c0,.27.1.5.29.7.2.2.43.3.71.3h1c.66,0,.99-.33.99-.99h1c-.16,1.33-.82,2-2,2h-2.01c-.55,0-1.02-.2-1.41-.59s-.59-.86-.59-1.41v-3c0-.55.2-1.03.59-1.42.39-.39.86-.59,1.41-.59h2.01c.55,0,1.02.2,1.41.59.39.4.59.87.59,1.41v2ZM35.68,24.12h2.01v-.99c0-.27-.1-.51-.3-.71-.2-.2-.43-.29-.71-.29s-.51.1-.71.29c-.2.2-.29.43-.29.71v.99Z"/>
</svg>